<svg xmlns="http://www.w3.org/2000/svg" viewBox="0 0 64 64" fill="none">
  <defs>
    <linearGradient id="pulse-grad" x1="0%" y1="0%" x2="100%" y2="100%">
      <stop offset="0%" stop-color="#7e3775"/>
      <stop offset="100%" stop-color="#6e2765"/>
    </linearGradient>
  </defs>
  <!-- Outer pulse ring -->
  <circle cx="32" cy="32" r="30" stroke="url(#pulse-grad)" stroke-width="2" fill="none" opacity="0.2"/>
  <!-- Second pulse ring -->
  <circle cx="32" cy="32" r="25" stroke="url(#pulse-grad)" stroke-width="2.5" fill="none" opacity="0.35"/>
  <!-- Third pulse ring -->
  <circle cx="32" cy="32" r="20" stroke="url(#pulse-grad)" stroke-width="3" fill="none" opacity="0.5"/>
  <!-- Inner filled circle -->
  <circle cx="32" cy="32" r="15" fill="url(#pulse-grad)" opacity="0.7"/>
  <!-- Core circle -->
  <circle cx="32" cy="32" r="12" fill="#6e2765"/>
  <!-- Bold stylized R -->
  <path d="M25 42 L25 22 L34 22 C39 22 42 24.5 42 28.5 C42 32 40 34 37 34.5 L42 42 L36.5 42 L32 35 L31 35 L31 42 Z M31 31 L33 31 C35.5 31 36.5 29.8 36.5 28.3 C36.5 26.8 35.5 26 33 26 L31 26 Z" fill="#faf9fb"/>
</svg>
