<?xml version="1.0" encoding="UTF-8"?>
<svg id="Layer_1" xmlns="http://www.w3.org/2000/svg" xmlns:xlink="http://www.w3.org/1999/xlink" version="1.1" viewBox="0 0 64 64">
  <!-- Generator: Adobe Illustrator 30.1.0, SVG Export Plug-In . SVG Version: 2.1.1 Build 136)  -->
  <defs>
    <style>
      .st0 {
        fill: #6e2765;
      }

      .st1 {
        fill: #faf9fb;
      }

      .st2 {
        fill: url(#linear-gradient);
        opacity: .2;
      }

      .st2, .st3, .st4 {
        isolation: isolate;
      }

      .st3 {
        fill: url(#linear-gradient1);
        opacity: .4;
      }

      .st4 {
        fill: url(#linear-gradient2);
        opacity: .6;
      }
    </style>
    <linearGradient id="linear-gradient" x1="-109.2" y1="308.9" x2="-108.2" y2="307.9" gradientTransform="translate(6551 18535) scale(60 -60)" gradientUnits="userSpaceOnUse">
      <stop offset="0" stop-color="#7e3775"/>
      <stop offset="1" stop-color="#6e2765"/>
    </linearGradient>
    <linearGradient id="linear-gradient1" x1="-108.7" y1="307.9" x2="-107.7" y2="306.9" gradientTransform="translate(5225 14785) scale(48 -48)" gradientUnits="userSpaceOnUse">
      <stop offset="0" stop-color="#7e3775"/>
      <stop offset="1" stop-color="#6e2765"/>
    </linearGradient>
    <linearGradient id="linear-gradient2" x1="-107.9" y1="306.1" x2="-106.9" y2="305.1" gradientTransform="translate(3899 11035) scale(36 -36)" gradientUnits="userSpaceOnUse">
      <stop offset="0" stop-color="#7e3775"/>
      <stop offset="1" stop-color="#6e2765"/>
    </linearGradient>
  </defs>
  <circle class="st2" cx="32" cy="32" r="30"/>
  <circle class="st3" cx="32" cy="32" r="24"/>
  <circle class="st4" cx="32" cy="32" r="18"/>
  <circle class="st0" cx="32" cy="32" r="14"/>
  <path class="st1" d="M18.1,15.3h18.2l1.5.2,1.5.5,1.7.8,1.2.9.9.8.8.8.9,1.3.7,1.3.6,1.9.2,1v1c0,0,0,1.3,0,1.3l-.2,1.4-.4,1.7-.9,1.9-.9,1.3-1,1.1-1.1,1-.3.2.2.5,1.4,2.8,1.1,2,1.5,2.9,1.6,3.1.9,1.6v.2h-5.8l-.7-1.3-1.5-3.1-1-2-1.1-2.2-1-2-.8-1.6-.8-1.5-.8-1-.7-.8-1.4-1.1-1.4-.8-1.2-.5-1.1-.3-1.7-.2h0v-5.5h1.1l2.3.4,1.8.5,1.6.7,1.4.8,1.3,1,1.1,1,1.4,1.5.3-.2.8-.8.7-1.3.3-1.5v-1.4l-.3-1.2-.5-1.1-.7-.9-.6-.5-.8-.5-1.4-.5h-13.5v17.7l1.6-1.3,1.4-.9,1.8-1,2-.9h.4c0,0,1,.9,1,.9l.7.6.8,1.1.9,1.8v.2l-2.2.8-2.1,1-1.6,1-1.1.9-1.1,1.2-.9,1.3-1,2.1-.4,1.1h-1c0,0-4.2,0-4.2,0l-.2-.4V15.3Z"/>
</svg>