<?xml version="1.0" encoding="UTF-8"?>
<svg id="Layer_2" data-name="Layer 2" xmlns="http://www.w3.org/2000/svg" viewBox="0 0 131 136">
  <defs>
    <style>
      .cls-1 {
        fill: #fff;
      }
    </style>
  </defs>
  <g id="Layer_1-2" data-name="Layer 1">
    <path class="cls-1" d="M.37,0h79.2l6.48.73,6.48,1.84,7.24,3.3,5.33,3.67,3.81,3.3,3.43,3.3,3.81,5.14,3.05,5.51,2.67,7.71.76,4.04.38,4.04v5.14l-.76,5.88-1.9,6.98-3.81,7.71-3.81,5.14-4.19,4.41-4.95,4.04-1.14.73.76,2.2,6.1,11.38,4.57,8.08,6.48,11.75,6.86,12.48,3.81,6.61v.88h-25.39l-2.94-5.14-6.62-12.48-4.42-8.08-4.78-9.18-4.42-8.08-3.68-6.61-3.68-6.24-3.31-4.04-2.94-3.3-5.89-4.41-6.26-3.3-5.15-1.84-4.78-1.1-7.36-.73-.37-.37v-22.09h4.78l9.92,1.49,7.72,2.23,6.98,2.98,6.25,3.35,5.51,4.09,4.78,4.09,5.88,5.95,1.47-.74,3.31-3.35,2.94-5.21,1.47-5.95v-5.58l-1.1-4.84-2.2-4.47-2.94-3.72-2.57-2.23-3.67-2.23-5.88-1.86H23v72.34l6.99-5.14,5.89-3.67,7.73-4.04,8.83-3.67,1.84.37,4.42,3.3,2.94,2.57,3.31,4.41,4.05,7.34v.7l-9.54,3.3-9.18,4.03-6.97,4.03-4.77,3.67-4.77,4.77-4.04,5.5-4.4,8.43-1.84,4.4-4.4.37H.73l-.73-1.83V.73l.37-.73Z"/>
  </g>
</svg>